<?xml version="1.0" encoding="UTF-8"?>
<svg version="1.1" xmlns="http://www.w3.org/2000/svg" width="512" height="512">
<path d="M0 0 C5.66638517 3.42038276 10.82342228 7.35263706 16.01171875 11.44140625 C27.32478353 20.93660937 27.32478353 20.93660937 41.125 23.875 C48.39160372 20.87104737 54.48699823 15.8945941 60.5 10.9375 C72.72605095 0.87616912 86.61211679 -8.12016244 102.98828125 -7.5 C112.18085985 -6.40101177 119.1009151 -2.06579347 125.125 4.875 C132.54327125 15.00592268 135.80312498 26.40677732 139.34326172 38.3046875 C141.04561537 43.90193273 142.96755186 49.43704851 145.125 54.875 C145.53621094 55.96039063 145.94742187 57.04578125 146.37109375 58.1640625 C147.88557367 61.09566513 147.88557367 61.09566513 150.86328125 61.8984375 C152.63251953 62.07246094 152.63251953 62.07246094 154.4375 62.25 C155.1082959 62.31904541 155.7790918 62.38809082 156.47021484 62.45922852 C165.28621422 63.21246415 174.20114314 62.94336856 183.03637695 62.71435547 C195.98115105 62.4986517 210.41746484 63.86575435 220.41015625 72.953125 C228.06694235 81.12406915 230.54286236 89.23240158 230.39453125 100.34375 C229.44649395 112.76441258 225.03502506 124.68807329 220.85546875 136.32519531 C218.73708157 142.37108849 216.74754738 148.39049955 217.125 154.875 C218.32464532 157.57219494 218.32464532 157.57219494 220.625 159.375 C221.86443359 160.47134766 221.86443359 160.47134766 223.12890625 161.58984375 C227.75562301 165.11869551 232.57700075 168.30429868 237.46484375 171.45703125 C242.2949268 174.59764583 246.7117114 178.17977847 251.125 181.875 C251.75792969 182.36226562 252.39085937 182.84953125 253.04296875 183.3515625 C260.95322794 189.60293732 266.39436185 197.89654579 268.125 207.875 C269.35871557 218.99581636 266.11742159 227.55142985 259.33203125 236.29296875 C252.48919573 244.29848075 243.91076734 249.99762639 235.30859375 255.9453125 C231.78562615 258.38824924 228.34630881 260.92607564 224.93237305 263.51879883 C223.7265352 264.42362514 222.49098786 265.2901338 221.22973633 266.1159668 C219.27003621 267.61319428 218.19776185 268.64371196 217.125 270.875 C217.28731845 280.11460136 220.57195515 289.01209712 223.625 297.625 C234.55213526 328.87032287 234.55213526 328.87032287 227.44921875 343.69921875 C221.70064506 353.14451534 214.22747116 358.28826948 203.71484375 361.296875 C198.27689647 362.51077575 193.00634851 362.99523011 187.44140625 362.9375 C186.19053223 362.92912109 184.9396582 362.92074219 183.65087891 362.91210938 C182.34296387 362.89986328 181.03504883 362.88761719 179.6875 362.875 C169.12715717 362.80994852 158.65008135 362.93345918 148.125 363.875 C147.84140625 364.58527344 147.5578125 365.29554688 147.265625 366.02734375 C146.53325163 367.85576905 145.79422937 369.68155303 145.046875 371.50390625 C142.72189673 377.32410184 140.73662437 383.09314505 139.03833008 389.12182617 C134.5855198 404.86167927 128.88072891 420.99944298 114.21484375 429.8671875 C105.72640741 433.96067643 96.48910498 434.32684632 87.5625 431.3125 C78.20012852 427.42393182 70.05661862 421.99941811 62.14575195 415.72827148 C49.81472736 405.46754375 49.81472736 405.46754375 35.125 401.875 C32.05988073 403.20128392 32.05988073 403.20128392 29.0625 405.1875 C28.22114502 405.71730469 28.22114502 405.71730469 27.36279297 406.2578125 C23.18218936 408.97409639 19.47314942 412.07126354 15.75 415.375 C4.21461542 425.51788138 -11.74668899 434.07566441 -27.51171875 433.25 C-37.42876134 431.67638663 -44.60857272 426.32150291 -50.7109375 418.53125 C-56.80279134 409.15916717 -59.63226166 398.24033648 -62.97900391 387.67382812 C-64.15252178 384.00810362 -65.40222547 380.37810227 -66.6875 376.75 C-67.04457031 375.73679687 -67.40164062 374.72359375 -67.76953125 373.6796875 C-68.31673828 372.29136719 -68.31673828 372.29136719 -68.875 370.875 C-69.29523438 369.7921875 -69.71546875 368.709375 -70.1484375 367.59375 C-71.62066612 364.69439931 -71.62066612 364.69439931 -74.39453125 363.8515625 C-76.02455078 363.67753906 -76.02455078 363.67753906 -77.6875 363.5 C-78.30987549 363.43167969 -78.93225098 363.36335938 -79.57348633 363.29296875 C-88.30821288 362.50502425 -97.15369983 362.78221075 -105.91137695 362.94775391 C-120.72744502 363.15381347 -134.73162844 361.73033856 -145.89453125 351.16015625 C-152.44595232 343.60082425 -154.26746156 335.1818477 -154.1484375 325.421875 C-153.32477973 314.73785709 -149.89428489 304.68864735 -146.25 294.6875 C-141.74253532 283.07927174 -141.74253532 283.07927174 -140.875 270.875 C-144.95514853 263.42378857 -153.97406027 259.00041733 -160.953125 254.4765625 C-174.03291815 245.91040204 -186.73227546 235.9936277 -191.625 220.5 C-192.79794027 208.18412715 -190.76083243 199.34954088 -183.08203125 189.45703125 C-176.23919573 181.45151925 -167.66076734 175.75237361 -159.05859375 169.8046875 C-155.53562615 167.36175076 -152.09630881 164.82392436 -148.68237305 162.23120117 C-147.4765352 161.32637486 -146.24098786 160.4598662 -144.97973633 159.6340332 C-143.02003621 158.13680572 -141.94776185 157.10628804 -140.875 154.875 C-141.03731845 145.63539864 -144.32195515 136.73790288 -147.375 128.125 C-158.30213526 96.87967713 -158.30213526 96.87967713 -151.19921875 82.05078125 C-145.26275299 72.29676523 -136.90901255 66.56533584 -125.875 63.875 C-121.27127568 63.11704222 -116.88949381 62.76385038 -112.2265625 62.8125 C-110.98084473 62.82087891 -109.73512695 62.82925781 -108.45166016 62.83789062 C-106.49558838 62.85625977 -106.49558838 62.85625977 -104.5 62.875 C-93.58620243 62.94239155 -82.75740591 62.76856999 -71.875 61.875 C-71.59140625 61.16472656 -71.3078125 60.45445313 -71.015625 59.72265625 C-70.28325163 57.89423095 -69.54422937 56.06844697 -68.796875 54.24609375 C-66.47189673 48.42589816 -64.48662437 42.65685495 -62.78833008 36.62817383 C-58.3355198 20.88832073 -52.63072891 4.75055702 -37.96484375 -4.1171875 C-24.6625354 -10.53213246 -12.22073476 -6.77506003 0 0 Z " fill="#49ADF4" transform="translate(217.875,43.125)"/>
<path d="M0 0 C5.67458978 1.92721917 9.32050871 5.64101742 12 11 C12.55227439 17.40638287 11.61310324 21.64796664 8 27 C5.52064448 29.50802473 2.78572238 31.55362104 -0.0625 33.625 C-0.85615967 34.22199707 -1.64981934 34.81899414 -2.4675293 35.43408203 C-4.96609017 37.30659156 -7.48088498 39.15526285 -10 41 C-11.55766645 42.15053444 -13.11496633 43.30156534 -14.671875 44.453125 C-17.00491274 46.17552168 -19.33988501 47.89504525 -21.67993164 49.60791016 C-27.67633799 53.99962721 -33.59855865 58.48167505 -39.5 63 C-47.08759511 68.80701891 -54.72870744 74.53226483 -62.43798828 80.17675781 C-65.87190544 82.69130673 -69.29722532 85.21213859 -72.67578125 87.80078125 C-73.22419678 88.21980713 -73.7726123 88.63883301 -74.33764648 89.07055664 C-75.74692342 90.15174083 -77.15106922 91.2396047 -78.5546875 92.328125 C-83.31539105 95.58304692 -87.23539232 96.59633873 -93 96 C-100.0866456 92.78857341 -105.04810472 87.37150203 -110.45703125 81.90625 C-111.45063492 80.91212682 -112.4447592 79.91852375 -113.43937683 78.92541504 C-115.51244348 76.85225911 -117.58028469 74.77407396 -119.64428711 72.69189453 C-122.2864694 70.0269524 -124.93966285 67.37330569 -127.59660816 64.72309113 C-129.64648658 62.6765564 -131.6913408 60.62506202 -133.73462486 58.57194519 C-134.71129072 57.59143955 -135.68929731 56.61226745 -136.66868019 55.63447571 C-138.03512179 54.26840583 -139.39431264 52.89509488 -140.75317383 51.52148438 C-141.52703934 50.74301147 -142.30090485 49.96453857 -143.09822083 49.16247559 C-147.29678281 44.38837357 -147.54051183 40.20378973 -147.45703125 33.98828125 C-146.75446995 29.39461121 -144.53226702 26.8705041 -141 24 C-137.60471017 21.73647345 -136.18813329 21.67532243 -132.1875 21.625 C-131.17042969 21.59664062 -130.15335938 21.56828125 -129.10546875 21.5390625 C-122.09546452 22.57954112 -117.46803247 28.32002874 -112.7734375 33.20703125 C-111.39885854 34.61174026 -110.02384585 36.01602494 -108.6484375 37.41992188 C-106.49926929 39.62511457 -104.35426666 41.83400029 -102.21679688 44.05053711 C-100.14248969 46.19706618 -98.05307146 48.32789418 -95.9609375 50.45703125 C-95.32231781 51.12773148 -94.68369812 51.7984317 -94.02572632 52.48945618 C-93.12426376 53.40116829 -93.12426376 53.40116829 -92.20458984 54.33129883 C-91.68085785 54.87216629 -91.15712585 55.41303375 -90.61752319 55.97029114 C-89.02415133 57.22466197 -89.02415133 57.22466197 -86.92973328 56.75180054 C-84.4959851 55.80364195 -82.74345356 54.5023419 -80.68359375 52.89453125 C-79.84699219 52.24806641 -79.01039063 51.60160156 -78.1484375 50.93554688 C-76.80652344 49.88463867 -76.80652344 49.88463867 -75.4375 48.8125 C-73.5309534 47.33854225 -71.6233811 45.86591038 -69.71484375 44.39453125 C-68.75433105 43.65283691 -67.79381836 42.91114258 -66.80419922 42.14697266 C-62.74527049 39.0393443 -58.62775763 36.01525953 -54.5 33 C-48.58727453 28.67241727 -42.72513092 24.28673842 -36.9074707 19.83203125 C-34.24302674 17.79250355 -31.57148839 15.76260331 -28.8984375 13.734375 C-25.8780511 11.44191925 -22.8844276 9.12240049 -19.9140625 6.765625 C-13.60815958 1.8591849 -8.35011022 -2.08366891 0 0 Z " fill="#FDFEFE" transform="translate(324,219)"/>
</svg>
