<?xml version="1.0" encoding="UTF-8"?>
<svg version="1.1" xmlns="http://www.w3.org/2000/svg" width="512" height="512">
<path d="M0 0 C1.01790619 0.00215515 2.03581238 0.0043103 3.08456421 0.00653076 C17.69363523 0.05620146 32.02575853 0.30709809 46.375 3.3125 C47.34985352 3.51117676 48.32470703 3.70985352 49.32910156 3.91455078 C97.7109774 14.03517194 141.69928269 35.9516877 177.375 70.3125 C178.3640332 71.26068604 178.3640332 71.26068604 179.37304688 72.22802734 C188.86130305 81.37247479 197.6012044 90.66984009 205.375 101.3125 C206.23306152 102.46355017 207.09113451 103.61459177 207.94921875 104.765625 C213.98736829 112.95680614 219.34595521 121.47054105 224.375 130.3125 C224.73948242 130.94430176 225.10396484 131.57610352 225.47949219 132.22705078 C247.08534998 169.97532572 256.85198095 212.74189997 256.6875 255.9375 C256.68534485 256.95540619 256.6831897 257.97331238 256.68096924 259.02206421 C256.63129854 273.63113523 256.38040191 287.96325853 253.375 302.3125 C253.07698486 303.77478027 253.07698486 303.77478027 252.77294922 305.26660156 C242.65232806 353.6484774 220.7358123 397.63678269 186.375 433.3125 C185.74287598 433.97185547 185.11075195 434.63121094 184.45947266 435.31054688 C175.31502521 444.79880305 166.01765991 453.5387044 155.375 461.3125 C154.22394983 462.17056152 153.07290823 463.02863451 151.921875 463.88671875 C143.73224019 469.92427396 135.22961724 475.30707302 126.375 480.3125 C125.66778809 480.7146875 124.96057617 481.116875 124.23193359 481.53125 C101.09654164 494.5566741 75.92537591 503.30551461 49.9375 508.625 C49.21860596 508.77235596 48.49971191 508.91971191 47.7590332 509.0715332 C33.08339502 511.86090125 18.55831162 512.66142619 3.64770508 512.62817383 C0.70811513 512.6250221 -2.2304558 512.64854926 -5.16992188 512.67382812 C-18.54306192 512.71848737 -31.43916711 511.51301542 -44.625 509.3125 C-46.33055054 509.03031616 -46.33055054 509.03031616 -48.07055664 508.74243164 C-91.33802759 500.97044532 -132.38793216 480.98345309 -165.625 452.3125 C-166.37007813 451.67828125 -167.11515625 451.0440625 -167.8828125 450.390625 C-181.38779833 438.57948485 -194.05918743 425.82889772 -204.625 411.3125 C-205.48149066 410.16255169 -206.33826433 409.01281411 -207.1953125 407.86328125 C-213.23534209 399.67315742 -218.61867614 391.16870382 -223.625 382.3125 C-224.0271875 381.60528809 -224.429375 380.89807617 -224.84375 380.16943359 C-237.8691741 357.03404164 -246.61801461 331.86287591 -251.9375 305.875 C-252.08485596 305.15610596 -252.23221191 304.43721191 -252.3840332 303.6965332 C-255.35789088 288.05024391 -255.99800362 272.57681954 -255.9375 256.6875 C-255.93534485 255.66959381 -255.9331897 254.65168762 -255.93096924 253.60293579 C-255.88129854 238.99386477 -255.63040191 224.66174147 -252.625 210.3125 C-252.42632324 209.33764648 -252.22764648 208.36279297 -252.02294922 207.35839844 C-241.90232806 158.9765226 -219.9858123 114.98821731 -185.625 79.3125 C-184.99287598 78.65314453 -184.36075195 77.99378906 -183.70947266 77.31445312 C-174.56502521 67.82619695 -165.26765991 59.0862956 -154.625 51.3125 C-153.47394983 50.45443848 -152.32290823 49.59636549 -151.171875 48.73828125 C-142.98224019 42.70072604 -134.47961724 37.31792698 -125.625 32.3125 C-124.91778809 31.9103125 -124.21057617 31.508125 -123.48193359 31.09375 C-100.34654164 18.0683259 -75.17537591 9.31948539 -49.1875 4 C-48.46860596 3.85264404 -47.74971191 3.70528809 -47.0090332 3.5534668 C-31.36274391 0.57960912 -15.88931954 -0.06050362 0 0 Z " fill="#0052B4" transform="translate(255.625,-0.3125)"/>
<path d="M0 0 C1.47091286 0.07392055 2.94182962 0.14776359 4.41275024 0.22152948 C42.18147884 2.13799412 79.7151389 5.66050394 117.1875 10.8125 C117.22075252 14.4088315 117.2403554 18.00512239 117.2578125 21.6015625 C117.26723877 22.60324463 117.27666504 23.60492676 117.28637695 24.63696289 C117.50359221 84.61250849 88.24872226 145.17996428 47.1875 187.8125 C46.55537598 188.47185547 45.92325195 189.13121094 45.27197266 189.81054688 C36.12752521 199.29880305 26.83015991 208.0387044 16.1875 215.8125 C15.03644983 216.67056152 13.88540823 217.52863451 12.734375 218.38671875 C4.54474019 224.42427396 -3.95788276 229.80707302 -12.8125 234.8125 C-13.87331787 235.41578125 -13.87331787 235.41578125 -14.95556641 236.03125 C-38.09095836 249.0566741 -63.26212409 257.80551461 -89.25 263.125 C-89.96889404 263.27235596 -90.68778809 263.41971191 -91.4284668 263.5715332 C-106.10410498 266.36090125 -120.62918838 267.16142619 -135.53979492 267.12817383 C-138.47938487 267.1250221 -141.4179558 267.14854926 -144.35742188 267.17382812 C-157.73056192 267.21848737 -170.62666711 266.01301542 -183.8125 263.8125 C-184.94953369 263.62437744 -186.08656738 263.43625488 -187.25805664 263.24243164 C-235.53596322 254.57043808 -279.05609179 230.93219465 -314.8125 197.8125 C-315.38484375 197.28269531 -315.9571875 196.75289062 -316.546875 196.20703125 C-317.68073952 195.12094192 -318.75633114 193.97428575 -319.8125 192.8125 C-319.8125 192.1525 -319.8125 191.4925 -319.8125 190.8125 C-318.78022242 189.90881802 -317.70104911 189.05874781 -316.60791016 188.22972107 C-310.34848454 182.88918761 -305.80373042 176.15626302 -300.92023408 169.59192979 C-282.48851234 144.92347256 -262.70959034 121.38590265 -242.20129198 98.42986578 C-241.27678501 97.3948049 -240.35301405 96.35908616 -239.42998701 95.32270533 C-187.81881912 37.37924232 -141.00904995 2.01914439 0 0 Z " fill="#D80027" transform="translate(394.8125,245.1875)"/>
<path d="M0 0 C4.93734317 2.55631185 8.45023483 6.17627674 12.32087708 10.08036804 C13.04793797 10.80572008 13.77499886 11.53107213 14.5240919 12.27840453 C16.95939766 14.71041576 19.38748572 17.14950687 21.81567383 19.58862305 C23.55980195 21.33331529 25.30437054 23.0775673 27.04934692 24.82141113 C30.80532351 28.57693227 34.55821426 32.33549634 38.30832863 36.09686852 C43.73034143 41.53514753 49.15787996 46.96788401 54.58677538 52.39929125 C63.39502018 61.21191139 72.198791 70.02898695 80.99975586 78.84887695 C89.5481911 87.41567515 98.09872806 95.98036658 106.65209961 104.54223633 C107.17948421 105.07014637 107.70686881 105.59805642 108.25023476 106.14196374 C110.89602776 108.79036686 113.54186214 111.43872864 116.18771708 114.08706987 C138.13156225 136.05164253 160.06807464 158.02352493 182 180 C180.68052763 182.9181379 179.25792096 184.99239049 176.99800968 187.2536726 C176.37931666 187.87758111 175.76062365 188.50148962 175.12318236 189.14430445 C174.44235655 189.82066882 173.76153074 190.49703318 173.06007385 191.19389343 C171.97650247 192.28214478 171.97650247 192.28214478 170.87104076 193.39238101 C168.44294559 195.82847003 166.00774412 198.25732848 163.57250977 200.6862793 C161.83284634 202.42865194 160.09360886 204.17144995 158.35476685 205.91464233 C154.11740457 210.16018934 149.87536737 214.40101243 145.63101573 218.63956817 C142.18252575 222.0835436 138.73599014 225.52946347 135.29084587 228.97678566 C134.80074408 229.46719392 134.31064229 229.95760217 133.80568893 230.46287129 C132.81011571 231.45908394 131.81454699 232.45530109 130.81898271 233.45152269 C121.48180763 242.7944019 112.13851013 252.13113906 102.79311233 261.46579234 C94.77029909 269.4796672 86.75274807 277.49877533 78.73901367 285.52172852 C69.43647824 294.83496029 60.13071554 304.1449476 50.81975788 313.44975978 C49.82749102 314.44138953 48.83522834 315.43302347 47.84296989 316.42466164 C47.11061679 317.15655192 47.11061679 317.15655192 46.36346867 317.90322786 C42.91904301 321.34592488 39.4769473 324.79094097 36.03573799 328.23685265 C31.40713875 332.87163762 26.77327665 337.50111338 22.13579178 342.12701035 C20.43083016 343.82931886 18.7275841 345.53334753 17.02614784 347.23917961 C14.71097914 349.5597794 12.38979379 351.87418448 10.06690979 354.1870575 C9.04901716 355.21164229 9.04901716 355.21164229 8.01056105 356.25692576 C7.38926028 356.87301103 6.76795952 357.4890963 6.12783146 358.12385082 C5.32464044 358.92655479 5.32464044 358.92655479 4.50522333 359.74547499 C3 361 3 361 0 362 C-8.50503946 353.89572156 -15.99732614 345.4292661 -23 336 C-23.43054687 335.42491699 -23.86109375 334.84983398 -24.3046875 334.25732422 C-30.81323777 325.52255391 -36.64040377 316.48114384 -42 307 C-42.4021875 306.29278809 -42.804375 305.58557617 -43.21875 304.85693359 C-56.2441741 281.72154164 -64.99301461 256.55037591 -70.3125 230.5625 C-70.45985596 229.84360596 -70.60721191 229.12471191 -70.7590332 228.3840332 C-73.73289088 212.73774391 -74.37300362 197.26431954 -74.3125 181.375 C-74.31034485 180.35709381 -74.3081897 179.33918762 -74.30596924 178.29043579 C-74.25629854 163.68136477 -74.00540191 149.34924147 -71 135 C-70.80132324 134.02514648 -70.60264648 133.05029297 -70.39794922 132.04589844 C-59.89113605 81.81782229 -36.59272119 36.16821167 0 0 Z " fill="#EFEFEE" transform="translate(74,75)"/>
<path d="M0 0 C7.08722503 5.93012707 13.44713245 12.16131364 19.32421875 19.30078125 C21.09509782 21.09642786 22.69595442 22.01111769 25 23 C25.56847656 22.35933594 26.13695313 21.71867187 26.72265625 21.05859375 C30.84426888 16.4415619 35.00639525 11.92994803 39.43359375 7.60546875 C41.00429833 5.99559448 42.40856261 4.31844502 43.8125 2.5625 C44.534375 1.716875 45.25625 0.87125 46 0 C46.66 0 47.32 0 48 0 C48.5079846 3.99902767 49.00493676 7.99935384 49.5 12 C49.64308594 13.12535156 49.78617187 14.25070313 49.93359375 15.41015625 C50.65976893 21.323297 51.17521659 27.04263601 51 33 C51.81678223 32.85377197 52.63356445 32.70754395 53.47509766 32.55688477 C56.52778134 32.01053977 59.58052204 31.46451474 62.63330078 30.91870117 C64.59542132 30.56778994 66.5574768 30.21651494 68.51953125 29.86523438 C70.38544922 29.53168945 70.38544922 29.53168945 72.2890625 29.19140625 C73.43068848 28.98717041 74.57231445 28.78293457 75.74853516 28.57250977 C78.82953634 28.03001481 81.91330623 27.50899785 85 27 C83.67904588 31.34837687 81.98197857 35.10451052 79.7421875 39.0546875 C79.11699219 40.16328125 78.49179688 41.271875 77.84765625 42.4140625 C77.19667969 43.55617187 76.54570312 44.69828125 75.875 45.875 C75.20915523 47.05181177 74.54378604 48.22889276 73.87890625 49.40625 C72.25725735 52.27351326 70.63082801 55.13795084 69 58 C69.70213623 58.10884521 70.40427246 58.21769043 71.12768555 58.32983398 C74.35030191 59.08173215 76.98269415 60.27362023 79.95703125 61.72265625 C81.06884766 62.26083984 82.18066406 62.79902344 83.32617188 63.35351562 C84.47666016 63.91748047 85.62714844 64.48144531 86.8125 65.0625 C87.98232422 65.63033203 89.15214844 66.19816406 90.35742188 66.78320312 C93.24081007 68.18370596 96.12151151 69.58946134 99 71 C99 71.66 99 72.32 99 73 C95.21334156 74.85891197 91.42303238 76.71009176 87.62915039 78.55419922 C86.33905612 79.18261934 85.04998316 79.81314064 83.76196289 80.44580078 C81.91036252 81.3548331 80.05522033 82.2562448 78.19921875 83.15625 C77.08377686 83.70087891 75.96833496 84.24550781 74.8190918 84.80664062 C72 86 72 86 69 86 C69.4846875 86.86802246 69.969375 87.73604492 70.46875 88.63037109 C72.26207947 91.84464129 74.04984986 95.06197437 75.8359375 98.28027344 C76.61045928 99.67402279 77.3864959 101.06693142 78.1640625 102.45898438 C79.28001726 104.45745437 80.39052915 106.45886237 81.5 108.4609375 C81.84998047 109.08495453 82.19996094 109.70897156 82.56054688 110.35189819 C85 114.77225659 85 114.77225659 85 117 C73.63520778 115.17779703 62.32052415 113.07613457 51 111 C50.95101562 111.95777344 50.90203125 112.91554688 50.8515625 113.90234375 C50.29761138 123.99372112 49.27782425 133.97590297 48 144 C43.98184107 142.43216696 41.53908655 139.59399648 38.75 136.4375 C38.27199951 135.90608398 37.79399902 135.37466797 37.30151367 134.82714844 C35.86157847 133.22342572 34.43013057 131.61246596 33 130 C32.17628906 129.07832031 31.35257812 128.15664063 30.50390625 127.20703125 C28.66323366 125.14324683 26.82841142 123.07464448 25 121 C22.02363795 122.33579648 19.96048142 123.79234603 17.6875 126.125 C16.78064453 127.05505859 16.78064453 127.05505859 15.85546875 128.00390625 C14.0165582 129.98218686 12.25405614 132.00887472 10.5 134.0625 C7.28858627 137.79822618 3.81376619 140.88672148 0 144 C-1.27634079 137.59113988 -2.29844651 131.16791936 -3.125 124.6875 C-3.21249512 124.01847656 -3.29999023 123.34945312 -3.39013672 122.66015625 C-3.87477753 118.74402448 -4.03266976 114.9415722 -4 111 C-5.11858398 111.21934204 -5.11858398 111.21934204 -6.25976562 111.44311523 C-9.67263786 112.11070143 -13.08630543 112.77413216 -16.5 113.4375 C-17.67304687 113.66759766 -18.84609375 113.89769531 -20.0546875 114.13476562 C-26.02677841 115.29227763 -31.95085375 116.34866866 -38 117 C-33.73135989 108.263147 -29.3873052 99.67835141 -24.34765625 91.35546875 C-22.88129366 88.97161652 -22.88129366 88.97161652 -22 86 C-22.86963379 85.72365723 -23.73926758 85.44731445 -24.63525391 85.16259766 C-27.80894966 84.06601231 -30.78983845 82.80684889 -33.8359375 81.3984375 C-34.89941406 80.90859375 -35.96289062 80.41875 -37.05859375 79.9140625 C-38.70021484 79.15222656 -38.70021484 79.15222656 -40.375 78.375 C-41.49261719 77.859375 -42.61023438 77.34375 -43.76171875 76.8125 C-46.50912202 75.54446772 -49.2551527 74.2735532 -52 73 C-52 72.34 -52 71.68 -52 71 C-48.05125409 69.14373245 -44.10022073 67.2924537 -40.14697266 65.44580078 C-38.8019281 64.81664084 -37.45752282 64.18611234 -36.11376953 63.55419922 C-34.18427549 62.64712342 -32.25255007 61.74496389 -30.3203125 60.84375 C-29.15773926 60.29912109 -27.99516602 59.75449219 -26.79736328 59.19335938 C-24 58 -24 58 -22 58 C-26.9671838 47.77814265 -32.3527718 37.86023971 -38 28 C-34.92467511 26.46233755 -32.05334668 27.57228962 -28.8046875 28.21484375 C-28.09724396 28.34943497 -27.38980042 28.48402618 -26.66091919 28.62269592 C-24.39770425 29.05475628 -22.13639299 29.49601278 -19.875 29.9375 C-18.34256425 30.23172637 -16.81001339 30.52535382 -15.27734375 30.81835938 C-11.51685721 31.53862548 -7.75805259 32.26714501 -4 33 C-3.90912109 31.63524536 -3.90912109 31.63524536 -3.81640625 30.24291992 C-3.35871079 23.57332894 -2.84464388 16.94427419 -2 10.3125 C-1.9175 9.63767578 -1.835 8.96285156 -1.75 8.26757812 C-1.38188277 5.37153089 -0.92621811 2.77865434 0 0 Z " fill="#FEDA45" transform="translate(75,184)"/>
<path d="M0 0 C4.03919345 4.03919345 6.84168113 7.39787822 10 12 C13.57335138 11.57119783 16.78536858 11.07575227 20.1875 9.875 C23 9 23 9 27 10 C24.03 13.96 21.06 17.92 18 22 C19.7015625 24.6296875 19.7015625 24.6296875 21.4375 27.3125 C23.33440039 30.24407333 24.89485234 32.68455701 26 36 C20.58201328 35.30834212 15.3177215 34.24200752 10 33 C9.36191406 33.86625 8.72382812 34.7325 8.06640625 35.625 C7.23193883 36.75012461 6.39729428 37.87511788 5.5625 39 C5.14162109 39.57234375 4.72074219 40.1446875 4.28710938 40.734375 C3.21555864 42.17453919 2.11033324 43.58951996 1 45 C0.67 45 0.34 45 0 45 C0 39.39 0 33.78 0 28 C-1.711875 27.54625 -3.42375 27.0925 -5.1875 26.625 C-8.91415112 25.63721296 -12.44496838 24.49480306 -16 23 C-15 21 -15 21 -12.12890625 19.9296875 C-10.95199219 19.58164062 -9.77507813 19.23359375 -8.5625 18.875 C-7.38816406 18.52179688 -6.21382812 18.16859375 -5.00390625 17.8046875 C-2 17 -2 17 0 17 C0 11.39 0 5.78 0 0 Z " fill="#FEDA4A" transform="translate(68,366)"/>
<path d="M0 0 C4.03919345 4.03919345 6.84168113 7.39787822 10 12 C15.72398793 11.25339288 21.34853777 10.17122859 27 9 C26.60167969 9.59167969 26.20335937 10.18335937 25.79296875 10.79296875 C25.26316406 11.58316406 24.73335937 12.37335938 24.1875 13.1875 C23.40439453 14.35345703 23.40439453 14.35345703 22.60546875 15.54296875 C21.00740068 17.9886739 19.50311106 20.4948149 18 23 C20.97 27.29 23.94 31.58 27 36 C25 37 25 37 22.3203125 36.1875 C20.19467977 35.3975338 18.06967567 34.60587396 15.9453125 33.8125 C12.34021775 32.77304502 12.34021775 32.77304502 9 34 C6.80447414 36.52515698 6.80447414 36.52515698 4.8125 39.5625 C3.55949826 41.38737267 2.29335859 43.2035042 1 45 C0.67 45 0.34 45 0 45 C0 39.39 0 33.78 0 28 C-1.711875 27.54625 -3.42375 27.0925 -5.1875 26.625 C-8.91415112 25.63721296 -12.44496838 24.49480306 -16 23 C-13.50063756 20.50063756 -11.35191992 19.96276247 -8 18.875 C-6.9275 18.52179688 -5.855 18.16859375 -4.75 17.8046875 C-2 17 -2 17 0 17 C0 11.39 0 5.78 0 0 Z " fill="#FEDA49" transform="translate(68,101)"/>
<path d="M0 0 C0.33 0 0.66 0 1 0 C1 5.94 1 11.88 1 18 C3.0109375 18.433125 3.0109375 18.433125 5.0625 18.875 C9.09551685 19.76838981 13.04185945 20.82097941 17 22 C17 22.66 17 23.32 17 24 C14.89748139 24.67184618 12.79292237 25.33730968 10.6875 26 C9.51574219 26.37125 8.34398437 26.7425 7.13671875 27.125 C4 28 4 28 1 28 C1 33.94 1 39.88 1 46 C-1.71080557 43.28919443 -3.98091007 40.88899318 -6.25 37.875 C-7.03117187 36.85019531 -7.03117187 36.85019531 -7.828125 35.8046875 C-9 34 -9 34 -9 32 C-9.97582031 32.37253906 -10.95164063 32.74507813 -11.95703125 33.12890625 C-13.24200736 33.60725502 -14.52717367 34.08509308 -15.8125 34.5625 C-16.77639648 34.9327832 -16.77639648 34.9327832 -17.75976562 35.31054688 C-22.66015625 37.11328125 -22.66015625 37.11328125 -26 36 C-25.41089844 35.26394531 -24.82179687 34.52789062 -24.21484375 33.76953125 C-23.46332031 32.79371094 -22.71179688 31.81789063 -21.9375 30.8125 C-21.18339844 29.84957031 -20.42929688 28.88664062 -19.65234375 27.89453125 C-17.78085465 25.18338765 -17.78085465 25.18338765 -18.03125 22.4296875 C-19.16192478 19.59388221 -20.60032281 17.64729265 -22.5625 15.3125 C-26 11.1971831 -26 11.1971831 -26 9 C-14.47835991 12.07517084 -14.47835991 12.07517084 -9 14 C-8.74347656 13.44828125 -8.48695313 12.8965625 -8.22265625 12.328125 C-6.81373842 9.64532938 -5.17549991 7.23182032 -3.4375 4.75 C-2.81746094 3.85796875 -2.19742188 2.9659375 -1.55859375 2.046875 C-1.04425781 1.37140625 -0.52992188 0.6959375 0 0 Z " fill="#FEDA49" transform="translate(216,233)"/>
</svg>
