<?xml version="1.0" encoding="UTF-8"?>
<svg version="1.1" xmlns="http://www.w3.org/2000/svg" width="512" height="512">
<path d="M0 0 C1.01790619 0.00215515 2.03581238 0.0043103 3.08456421 0.00653076 C17.69363523 0.05620146 32.02575853 0.30709809 46.375 3.3125 C47.34985352 3.51117676 48.32470703 3.70985352 49.32910156 3.91455078 C97.7109774 14.03517194 141.69928269 35.9516877 177.375 70.3125 C178.3640332 71.26068604 178.3640332 71.26068604 179.37304688 72.22802734 C188.86130305 81.37247479 197.6012044 90.66984009 205.375 101.3125 C206.23306152 102.46355017 207.09113451 103.61459177 207.94921875 104.765625 C213.98736829 112.95680614 219.34595521 121.47054105 224.375 130.3125 C224.73948242 130.94430176 225.10396484 131.57610352 225.47949219 132.22705078 C247.08534998 169.97532572 256.85198095 212.74189997 256.6875 255.9375 C256.68534485 256.95540619 256.6831897 257.97331238 256.68096924 259.02206421 C256.63129854 273.63113523 256.38040191 287.96325853 253.375 302.3125 C253.07698486 303.77478027 253.07698486 303.77478027 252.77294922 305.26660156 C242.65232806 353.6484774 220.7358123 397.63678269 186.375 433.3125 C185.74287598 433.97185547 185.11075195 434.63121094 184.45947266 435.31054688 C175.31502521 444.79880305 166.01765991 453.5387044 155.375 461.3125 C154.22394983 462.17056152 153.07290823 463.02863451 151.921875 463.88671875 C143.73224019 469.92427396 135.22961724 475.30707302 126.375 480.3125 C125.66778809 480.7146875 124.96057617 481.116875 124.23193359 481.53125 C101.09654164 494.5566741 75.92537591 503.30551461 49.9375 508.625 C49.21860596 508.77235596 48.49971191 508.91971191 47.7590332 509.0715332 C33.08339502 511.86090125 18.55831162 512.66142619 3.64770508 512.62817383 C0.70811513 512.6250221 -2.2304558 512.64854926 -5.16992188 512.67382812 C-18.54306192 512.71848737 -31.43916711 511.51301542 -44.625 509.3125 C-46.33055054 509.03031616 -46.33055054 509.03031616 -48.07055664 508.74243164 C-50.6662622 508.27617402 -53.23774939 507.7574418 -55.8125 507.1875 C-57.20142456 506.88054199 -57.20142456 506.88054199 -58.6184082 506.56738281 C-103.06909585 496.23155661 -143.80440564 473.92342102 -176.625 442.3125 C-177.28435547 441.68037598 -177.94371094 441.04825195 -178.62304688 440.39697266 C-188.11130305 431.25252521 -196.8512044 421.95515991 -204.625 411.3125 C-205.48306152 410.16144983 -206.34113451 409.01040823 -207.19921875 407.859375 C-213.23677396 399.66974019 -218.61957302 391.16711724 -223.625 382.3125 C-224.0271875 381.60528809 -224.429375 380.89807617 -224.84375 380.16943359 C-237.8691741 357.03404164 -246.61801461 331.86287591 -251.9375 305.875 C-252.08485596 305.15610596 -252.23221191 304.43721191 -252.3840332 303.6965332 C-255.35789088 288.05024391 -255.99800362 272.57681954 -255.9375 256.6875 C-255.93534485 255.66959381 -255.9331897 254.65168762 -255.93096924 253.60293579 C-255.88129854 238.99386477 -255.63040191 224.66174147 -252.625 210.3125 C-252.42632324 209.33764648 -252.22764648 208.36279297 -252.02294922 207.35839844 C-241.90232806 158.9765226 -219.9858123 114.98821731 -185.625 79.3125 C-184.99287598 78.65314453 -184.36075195 77.99378906 -183.70947266 77.31445312 C-174.56502521 67.82619695 -165.26765991 59.0862956 -154.625 51.3125 C-153.47394983 50.45443848 -152.32290823 49.59636549 -151.171875 48.73828125 C-142.98224019 42.70072604 -134.47961724 37.31792698 -125.625 32.3125 C-124.91778809 31.9103125 -124.21057617 31.508125 -123.48193359 31.09375 C-100.34654164 18.0683259 -75.17537591 9.31948539 -49.1875 4 C-48.46860596 3.85264404 -47.74971191 3.70528809 -47.0090332 3.5534668 C-31.36274391 0.57960912 -15.88931954 -0.06050362 0 0 Z " fill="#F0F0F0" transform="translate(255.625,-0.3125)"/>
<path d="M0 0 C1.01790619 0.00215515 2.03581238 0.0043103 3.08456421 0.00653076 C17.69363523 0.05620146 32.02575853 0.30709809 46.375 3.3125 C47.34985352 3.51117676 48.32470703 3.70985352 49.32910156 3.91455078 C97.7109774 14.03517194 141.69928269 35.9516877 177.375 70.3125 C178.3640332 71.26068604 178.3640332 71.26068604 179.37304688 72.22802734 C188.86130305 81.37247479 197.6012044 90.66984009 205.375 101.3125 C206.23306152 102.46355017 207.09113451 103.61459177 207.94921875 104.765625 C213.98736829 112.95680614 219.34595521 121.47054105 224.375 130.3125 C224.73948242 130.94430176 225.10396484 131.57610352 225.47949219 132.22705078 C240.25728768 158.04580292 249.56459364 187.02358516 254.375 216.3125 C254.49214355 217.01858398 254.60928711 217.72466797 254.72998047 218.45214844 C256.75061519 231.18845226 256.375 243.2513711 256.375 256.3125 C87.415 256.3125 -81.545 256.3125 -255.625 256.3125 C-255.625 189.88445128 -231.90670215 127.36529072 -185.625 79.3125 C-184.99287598 78.65314453 -184.36075195 77.99378906 -183.70947266 77.31445312 C-174.56502521 67.82619695 -165.26765991 59.0862956 -154.625 51.3125 C-153.47394983 50.45443848 -152.32290823 49.59636549 -151.171875 48.73828125 C-142.98224019 42.70072604 -134.47961724 37.31792698 -125.625 32.3125 C-124.91778809 31.9103125 -124.21057617 31.508125 -123.48193359 31.09375 C-100.34654164 18.0683259 -75.17537591 9.31948539 -49.1875 4 C-48.46860596 3.85264404 -47.74971191 3.70528809 -47.0090332 3.5534668 C-31.36274391 0.57960912 -15.88931954 -0.06050362 0 0 Z " fill="#0153B4" transform="translate(255.625,-0.3125)"/>
<path d="M0 0 C168.96 0 337.92 0 512 0 C512 26.63101604 512 26.63101604 510.8125 34.5625 C510.71130859 35.37138672 510.61011719 36.18027344 510.50585938 37.01367188 C509.05610069 47.50679011 506.35494068 57.638261 504 68 C340.32 68 176.64 68 8 68 C2.15101028 42.26444523 2.15101028 42.26444523 1.1875 34.5625 C1.06697266 33.75748047 0.94644531 32.95246094 0.82226562 32.12304688 C-0.58065034 21.37270223 0 10.99254133 0 0 Z " fill="#EFEFEF" transform="translate(0,256)"/>
<path d="M0 0 C163.02 0 326.04 0 494 0 C492.87270736 9.01834109 492.87270736 9.01834109 491.6875 12.453125 C491.42155029 13.22672363 491.15560059 14.00032227 490.8815918 14.79736328 C490.5906665 15.6067334 490.29974121 16.41610352 490 17.25 C489.69167236 18.1147998 489.38334473 18.97959961 489.06567383 19.87060547 C475.27242718 57.72757282 475.27242718 57.72757282 466 67 C463.67695271 67.11057736 461.38302692 67.15573373 459.05889034 67.15936089 C458.3206256 67.16440948 457.58236085 67.16945808 456.82172444 67.17465967 C454.31628729 67.1904984 451.81087631 67.19909834 449.30540466 67.20773315 C447.50357842 67.21746679 445.70175432 67.22760552 443.89993244 67.23811734 C438.9237627 67.26573032 433.94758327 67.28678591 428.97137725 67.30663323 C424.70922974 67.32439698 420.44710358 67.34582401 416.18497276 67.36717294 C375.79296874 67.56843652 335.4004382 67.67200934 295.00804043 67.75568962 C289.74876805 67.7667784 284.48949615 67.77807061 279.23022461 67.78955078 C277.92299932 67.79239532 276.61577404 67.79523985 275.26893587 67.79817058 C254.08980653 67.84565647 232.91117583 67.9419677 211.73231816 68.05712186 C190.00438559 68.17428405 168.27671249 68.242345 146.54847199 68.26382077 C134.34226282 68.27723723 122.13698218 68.31310839 109.9310894 68.405056 C99.53585397 68.4833503 89.1416554 68.51800721 78.74612927 68.4950311 C73.44008341 68.48470192 68.13629079 68.49560898 62.830616 68.56312943 C57.97288448 68.624475 53.11896361 68.62585699 48.2611003 68.57947291 C46.50386639 68.57328099 44.74638853 68.58911768 42.9896 68.62916015 C37.71199402 68.74232555 33.04100151 68.67065041 28 67 C24.13861433 63.05469149 22.16260283 59.09271207 20 54 C19.127725 52.33229537 18.24632878 50.66925437 17.34765625 49.015625 C16.5747148 47.43251364 15.81312795 45.84381234 15.0625 44.25 C14.65136963 43.38093018 14.24023926 42.51186035 13.81665039 41.61645508 C10.50361289 34.43641336 7.64291505 27.11576079 4.9375 19.6875 C4.3643103 18.12273926 4.3643103 18.12273926 3.77954102 16.52636719 C3.42819092 15.5315332 3.07684082 14.53669922 2.71484375 13.51171875 C2.40667725 12.63990967 2.09851074 11.76810059 1.78100586 10.86987305 C0.81688106 7.32711373 0.4554065 3.643252 0 0 Z " fill="#D80228" transform="translate(9,323)"/>
<path d="M0 0 C81.84 0 163.68 0 248 0 C253.84189123 24.53594315 253.84189123 24.53594315 254.8125 32.375 C254.93302734 33.18453125 255.05355469 33.9940625 255.17773438 34.828125 C256.57559959 45.59568103 256 55.99152322 256 67 C171.52 67 87.04 67 0 67 C0 44.89 0 22.78 0 0 Z " fill="#D80127" transform="translate(256,189)"/>
<path d="M0 0 C16.67226386 15.63136581 24.69668564 47.01822799 31 68 C31 68.33 31 68.66 31 69 C-50.84 69 -132.68 69 -217 69 C-217 46.89 -217 24.78 -217 2 C-145.39 2 -73.78 2 0 2 C0 1.34 0 0.68 0 0 Z " fill="#EFEEEE" transform="translate(473,120)"/>
<path d="M0 0 C20.80183742 -0.2034248 41.60286541 -0.36910136 62.40544605 -0.46630955 C72.06517544 -0.51265142 81.72424144 -0.57579307 91.38354492 -0.67895508 C99.80594154 -0.7688637 108.22785758 -0.82677173 116.65072078 -0.84679645 C121.1078946 -0.85849633 125.56369401 -0.88584802 130.0204258 -0.95157051 C134.22251912 -1.01303112 138.42268298 -1.03143196 142.62518311 -1.01796913 C144.16066189 -1.02042891 145.69621058 -1.03811628 147.23129845 -1.07284927 C156.77254073 -1.27799389 162.70924708 0.04588466 169.85511303 6.79186821 C170.91683208 7.88489345 170.91683208 7.88489345 172 9 C173.02840948 9.94280509 174.05907328 10.88316893 175.09375 11.8190918 C177.73740395 14.43404536 180.37850867 17.05028897 183 19.6875 C183.47900757 20.16799805 183.95801514 20.64849609 184.45153809 21.14355469 C191.93530115 28.66908469 198.83993397 36.35770794 205 45 C205.93316601 46.28546687 206.86677559 47.57061183 207.80078125 48.85546875 C217 61.58201494 217 61.58201494 217 66 C145.39 66 73.78 66 0 66 C0 44.22 0 22.44 0 0 Z " fill="#D80027" transform="translate(256,56)"/>
<path d="M0 0 C104.94 0 209.88 0 318 0 C316.90466726 3.28599821 316.41807102 3.69907894 313.7109375 5.6015625 C313.02467285 6.08705566 312.3384082 6.57254883 311.63134766 7.07275391 C310.88675293 7.58499512 310.1421582 8.09723633 309.375 8.625 C308.60591309 9.15915527 307.83682617 9.69331055 307.04443359 10.24365234 C299.88219471 15.16833646 292.5731949 19.73753187 285 24 C284.29713867 24.39928711 283.59427734 24.79857422 282.87011719 25.20996094 C259.73010066 38.23957024 234.55657463 46.99174579 208.5625 52.3125 C207.84360596 52.45985596 207.12471191 52.60721191 206.3840332 52.7590332 C191.70839502 55.54840125 177.18331162 56.34892619 162.27270508 56.31567383 C159.33311513 56.3125221 156.3945442 56.33604926 153.45507812 56.36132812 C140.08193808 56.40598737 127.18583289 55.20051542 114 53 C112.86296631 52.81187744 111.72593262 52.62375488 110.55444336 52.42993164 C107.9587378 51.96367402 105.38725061 51.4449418 102.8125 50.875 C101.88655029 50.67036133 100.96060059 50.46572266 100.0065918 50.25488281 C66.72084435 42.51516676 35.62777871 27.99946046 8 8 C7.08734375 7.35546875 6.1746875 6.7109375 5.234375 6.046875 C3.44481824 4.75789356 1.71167655 3.39073719 0 2 C0 1.34 0 0.68 0 0 Z " fill="#D8042A" transform="translate(97,456)"/>
<path d="M0 0 C56.41115299 0 116.74908411 16.7950243 160 55 C160 55.33 160 55.66 160 56 C107.2 56 54.4 56 0 56 C0 37.52 0 19.04 0 0 Z " fill="#EFEDEE" transform="translate(256,0)"/>
<path d="M0 0 C2 1 2 1 2.86962891 3.10131836 C3.15241699 4.00503174 3.43520508 4.90874512 3.7265625 5.83984375 C4.0359375 6.82017578 4.3453125 7.80050781 4.6640625 8.81054688 C4.98117188 9.84244141 5.29828125 10.87433594 5.625 11.9375 C6.11226562 13.47954102 6.11226562 13.47954102 6.609375 15.05273438 C9 22.70172991 9 22.70172991 9 25 C17.58 25 26.16 25 35 25 C29.375 30.625 29.375 30.625 26.44921875 32.67578125 C25.83369141 33.11083984 25.21816406 33.54589844 24.58398438 33.99414062 C23.64522461 34.64672852 23.64522461 34.64672852 22.6875 35.3125 C22.04232422 35.76689453 21.39714844 36.22128906 20.73242188 36.68945312 C19.15802858 37.79735952 17.57944354 38.89930525 16 40 C16.68928713 46.12343454 18.36576282 51.57945759 20.359375 57.390625 C22.10455357 62.68633929 22.10455357 62.68633929 21 66 C20.54149658 65.64695801 20.08299316 65.29391602 19.6105957 64.93017578 C17.51573272 63.32248409 15.41422874 61.72370402 13.3125 60.125 C12.59126953 59.56941406 11.87003906 59.01382813 11.12695312 58.44140625 C6.00837796 54.2257431 6.00837796 54.2257431 0 52 C-2.61863623 53.43661293 -4.68417928 54.79906443 -7 56.625 C-7.60328125 57.07746094 -8.2065625 57.52992188 -8.828125 57.99609375 C-12.27310312 60.5948055 -15.64169862 63.29046139 -19 66 C-19.66 65.67 -20.32 65.34 -21 65 C-18.36 56.75 -15.72 48.5 -13 40 C-14.32 39.34 -15.64 38.68 -17 38 C-19.97412555 36.06206094 -22.85432052 33.99040709 -25.75 31.9375 C-26.54277344 31.38255859 -27.33554688 30.82761719 -28.15234375 30.25585938 C-28.90128906 29.72669922 -29.65023437 29.19753906 -30.421875 28.65234375 C-31.10862305 28.16757568 -31.79537109 27.68280762 -32.50292969 27.18334961 C-32.99696289 26.79284424 -33.49099609 26.40233887 -34 26 C-34 25.67 -34 25.34 -34 25 C-25.09 25 -16.18 25 -7 25 C-6.34 21.7 -5.68 18.4 -5 15 C-4.16982816 12.25791727 -3.321964 9.57274628 -2.375 6.875 C-2.14554688 6.2046875 -1.91609375 5.534375 -1.6796875 4.84375 C-1.12544743 3.22721648 -0.56357985 1.6133011 0 0 Z " fill="#E8EBEE" transform="translate(106,164)"/>
<path d="M0 0 C2.2534872 2.2534872 2.73648451 3.71974454 3.7265625 6.71875 C4.0359375 7.65074219 4.3453125 8.58273438 4.6640625 9.54296875 C4.98117188 10.51878906 5.29828125 11.49460938 5.625 12.5 C6.11226562 13.96373047 6.11226562 13.96373047 6.609375 15.45703125 C9 22.71930804 9 22.71930804 9 25 C17.58 25 26.16 25 35 25 C29.36524454 30.63475546 29.36524454 30.63475546 26.51953125 32.67578125 C25.91302734 33.11083984 25.30652344 33.54589844 24.68164062 33.99414062 C24.06482422 34.42919922 23.44800781 34.86425781 22.8125 35.3125 C22.18408203 35.76689453 21.55566406 36.22128906 20.90820312 36.68945312 C16.25352444 40 16.25352444 40 14 40 C14.24758057 40.68102783 14.49516113 41.36205566 14.75024414 42.0637207 C15.8638151 45.14331315 16.96329486 48.22775236 18.0625 51.3125 C18.45244141 52.38435547 18.84238281 53.45621094 19.24414062 54.56054688 C19.60830078 55.58857422 19.97246094 56.61660156 20.34765625 57.67578125 C20.68804932 58.62364502 21.02844238 59.57150879 21.37915039 60.5480957 C22 63 22 63 21 66 C20.45061768 65.5654248 19.90123535 65.13084961 19.33520508 64.68310547 C16.84196667 62.72794392 14.32794659 60.80149082 11.8125 58.875 C10.51602539 57.84826172 10.51602539 57.84826172 9.19335938 56.80078125 C8.35224609 56.16269531 7.51113281 55.52460938 6.64453125 54.8671875 C5.87471924 54.27019043 5.10490723 53.67319336 4.31176758 53.05810547 C2.01532386 51.71437246 2.01532386 51.71437246 -0.52734375 52.64453125 C-2.86970988 53.92857714 -5.03737432 55.26345944 -7.20703125 56.8203125 C-7.95791016 57.35527344 -8.70878906 57.89023438 -9.48242188 58.44140625 C-10.25134766 58.99699219 -11.02027344 59.55257812 -11.8125 60.125 C-12.60076172 60.68832031 -13.38902344 61.25164062 -14.20117188 61.83203125 C-16.13746831 63.21677658 -18.07022641 64.60618627 -20 66 C-21 64 -21 64 -20.37915039 61.56982422 C-20.03875732 60.5748291 -19.69836426 59.57983398 -19.34765625 58.5546875 C-18.80141602 56.94013672 -18.80141602 56.94013672 -18.24414062 55.29296875 C-17.85419922 54.16503906 -17.46425781 53.03710938 -17.0625 51.875 C-16.48338867 50.17150391 -16.48338867 50.17150391 -15.89257812 48.43359375 C-14.93502821 45.62005203 -13.97057271 42.80907052 -13 40 C-13.57524414 39.72744385 -14.15048828 39.4548877 -14.74316406 39.17407227 C-18.65710346 37.13792616 -22.15629329 34.48527714 -25.75 31.9375 C-26.54277344 31.38255859 -27.33554688 30.82761719 -28.15234375 30.25585938 C-28.90128906 29.72669922 -29.65023437 29.19753906 -30.421875 28.65234375 C-31.10862305 28.16757568 -31.79537109 27.68280762 -32.50292969 27.18334961 C-32.99696289 26.79284424 -33.49099609 26.40233887 -34 26 C-34 25.67 -34 25.34 -34 25 C-25.09 25 -16.18 25 -7 25 C-6.67 22.69 -6.34 20.38 -6 18 C-5.57806353 16.44576655 -5.11244849 14.90224347 -4.58984375 13.37890625 C-4.32236328 12.58935547 -4.05488281 11.79980469 -3.77929688 10.98632812 C-3.36260742 9.7865332 -3.36260742 9.7865332 -2.9375 8.5625 C-2.65583984 7.73556641 -2.37417969 6.90863281 -2.08398438 6.05664062 C-1.39482208 4.03587662 -0.6981769 2.01766718 0 0 Z " fill="#E9EBEE" transform="translate(198,164)"/>
<path d="M0 0 C2.2534872 2.2534872 2.73648451 3.71974454 3.7265625 6.71875 C4.0359375 7.65074219 4.3453125 8.58273438 4.6640625 9.54296875 C4.98117188 10.51878906 5.29828125 11.49460937 5.625 12.5 C6.11226562 13.96373047 6.11226562 13.96373047 6.609375 15.45703125 C9 22.71930804 9 22.71930804 9 25 C17.58 25 26.16 25 35 25 C29.36524454 30.63475546 29.36524454 30.63475546 26.51953125 32.67578125 C25.91302734 33.11083984 25.30652344 33.54589844 24.68164062 33.99414062 C24.06482422 34.42919922 23.44800781 34.86425781 22.8125 35.3125 C22.18408203 35.76689453 21.55566406 36.22128906 20.90820312 36.68945312 C16.25352444 40 16.25352444 40 14 40 C14.24758057 40.68102783 14.49516113 41.36205566 14.75024414 42.0637207 C15.8638151 45.14331315 16.96329486 48.22775236 18.0625 51.3125 C18.45244141 52.38435547 18.84238281 53.45621094 19.24414062 54.56054688 C19.60830078 55.58857422 19.97246094 56.61660156 20.34765625 57.67578125 C20.68804932 58.62364502 21.02844238 59.57150879 21.37915039 60.5480957 C22 63 22 63 21 66 C20.29653442 65.47043701 20.29653442 65.47043701 19.57885742 64.93017578 C17.44903798 63.3276072 15.31827996 61.72629122 13.1875 60.125 C12.44951172 59.56941406 11.71152344 59.01382813 10.95117188 58.44140625 C10.23896484 57.90644531 9.52675781 57.37148437 8.79296875 56.8203125 C8.1383667 56.32805176 7.48376465 55.83579102 6.80932617 55.32861328 C3.77872454 52.77954501 3.77872454 52.77954501 0.08300781 52.19116211 C-2.36864962 53.1431477 -4.20911276 54.38241868 -6.328125 55.94140625 C-7.12734375 56.52470703 -7.9265625 57.10800781 -8.75 57.70898438 C-9.575 58.32064453 -10.4 58.93230469 -11.25 59.5625 C-12.09046875 60.17802734 -12.9309375 60.79355469 -13.796875 61.42773438 C-15.86873236 62.94631164 -17.93617964 64.47052772 -20 66 C-21 64 -21 64 -20.47094727 61.89282227 C-20.17244873 61.04260498 -19.8739502 60.1923877 -19.56640625 59.31640625 C-19.24736328 58.38892578 -18.92832031 57.46144531 -18.59960938 56.50585938 C-18.25736328 55.53455078 -17.91511719 54.56324219 -17.5625 53.5625 C-16.89306525 51.64855417 -16.22752159 49.73324167 -15.56640625 47.81640625 C-15.26677979 46.96506104 -14.96715332 46.11371582 -14.65844727 45.23657227 C-13.85879212 42.90893428 -13.85879212 42.90893428 -14 40 C-15.53927656 38.5110966 -15.53927656 38.5110966 -17.61328125 37.1875 C-18.36673828 36.66929688 -19.12019531 36.15109375 -19.89648438 35.6171875 C-20.69376953 35.08351562 -21.49105469 34.54984375 -22.3125 34 C-23.87287732 32.94012107 -25.43153818 31.87770972 -26.98828125 30.8125 C-27.68477783 30.34457031 -28.38127441 29.87664063 -29.09887695 29.39453125 C-31 28 -31 28 -34 25 C-25.42 24.67 -16.84 24.34 -8 24 C-7.05125 21.339375 -6.1025 18.67875 -5.125 15.9375 C-4.82996582 15.1137085 -4.53493164 14.28991699 -4.23095703 13.44116211 C-2.65450461 8.99654556 -1.24446328 4.54893618 0 0 Z " fill="#EBECEE" transform="translate(198,15)"/>
<path d="M0 0 C2 1 2 1 2.86962891 3.10131836 C3.15241699 4.00503174 3.43520508 4.90874512 3.7265625 5.83984375 C4.0359375 6.82017578 4.3453125 7.80050781 4.6640625 8.81054688 C4.98117188 9.84244141 5.29828125 10.87433594 5.625 11.9375 C6.11226562 13.47954102 6.11226562 13.47954102 6.609375 15.05273438 C9 22.70172991 9 22.70172991 9 25 C17.25 25 25.5 25 34 25 C28.375 30.625 28.375 30.625 25.44921875 32.67578125 C24.83369141 33.11083984 24.21816406 33.54589844 23.58398438 33.99414062 C22.64522461 34.64672852 22.64522461 34.64672852 21.6875 35.3125 C21.04232422 35.76689453 20.39714844 36.22128906 19.73242188 36.68945312 C18.15802858 37.79735952 16.57944354 38.89930525 15 40 C15.31807617 41.02939697 15.31807617 41.02939697 15.64257812 42.07958984 C16.59794305 45.1771769 17.54902294 48.27606317 18.5 51.375 C18.83386719 52.45523438 19.16773438 53.53546875 19.51171875 54.6484375 C19.82753906 55.6796875 20.14335937 56.7109375 20.46875 57.7734375 C20.76201172 58.72653809 21.05527344 59.67963867 21.35742188 60.66162109 C22 63 22 63 22 65 C17.2677576 62.91781334 13.28011708 59.6695418 9.1328125 56.6328125 C8.53210938 56.19710937 7.93140625 55.76140625 7.3125 55.3125 C6.77238281 54.91675781 6.23226562 54.52101562 5.67578125 54.11328125 C3.85131409 52.90122265 1.97526914 51.94244867 0 51 C-0.56509277 51.41886475 -1.13018555 51.83772949 -1.71240234 52.26928711 C-4.26542376 54.16028764 -6.8201871 56.04892064 -9.375 57.9375 C-10.26445312 58.59685547 -11.15390625 59.25621094 -12.0703125 59.93554688 C-13.34648437 60.87817383 -13.34648437 60.87817383 -14.6484375 61.83984375 C-15.43395996 62.42113037 -16.21948242 63.00241699 -17.02880859 63.60131836 C-19 65 -19 65 -21 66 C-19.28258335 58.66194706 -17.26662378 51.5752453 -14.671875 44.49609375 C-13.72677236 41.89978257 -13.72677236 41.89978257 -15 39 C-17.24076625 37.26362357 -19.46921214 35.64745752 -21.8125 34.0625 C-23.07155793 33.20293844 -24.32813314 32.33972745 -25.58203125 31.47265625 C-26.14124268 31.09375244 -26.7004541 30.71484863 -27.27661133 30.32446289 C-29.34265919 28.73665872 -31.1574914 26.8425086 -33 25 C-20.625 24.505 -20.625 24.505 -8 24 C-5.36 16.08 -2.72 8.16 0 0 Z " fill="#E9ECEE" transform="translate(198,90)"/>
<path d="M0 0 C2 1 2 1 2.86962891 2.99365234 C3.15241699 3.84910645 3.43520508 4.70456055 3.7265625 5.5859375 C4.0359375 6.51664062 4.3453125 7.44734375 4.6640625 8.40625 C5.13972656 9.87578125 5.13972656 9.87578125 5.625 11.375 C5.94984375 12.34695312 6.2746875 13.31890625 6.609375 14.3203125 C9 21.59263393 9 21.59263393 9 25 C17.25 25 25.5 25 34 25 C28.375 30.625 28.375 30.625 25.44921875 32.67578125 C24.83369141 33.11083984 24.21816406 33.54589844 23.58398438 33.99414062 C22.64522461 34.64672852 22.64522461 34.64672852 21.6875 35.3125 C21.04232422 35.76689453 20.39714844 36.22128906 19.73242188 36.68945312 C18.15802858 37.79735952 16.57944354 38.89930525 15 40 C15.2172876 40.65073486 15.4345752 41.30146973 15.65844727 41.97192383 C16.63571223 44.91580642 17.59923993 47.86400678 18.5625 50.8125 C18.90474609 51.83666016 19.24699219 52.86082031 19.59960938 53.91601562 C19.91865234 54.89892578 20.23769531 55.88183594 20.56640625 56.89453125 C21.01415405 58.25348511 21.01415405 58.25348511 21.47094727 59.63989258 C22 62 22 62 21 65 C18.76954339 63.41845837 16.54061577 61.83483359 14.3125 60.25 C13.37374023 59.58484375 13.37374023 59.58484375 12.41601562 58.90625 C8.85526857 56.37084895 5.38477246 53.76994764 2 51 C-0.9115281 52.37583975 -3.48765528 53.95333027 -6.109375 55.8203125 C-6.86347656 56.35527344 -7.61757812 56.89023438 -8.39453125 57.44140625 C-9.56048828 58.27478516 -9.56048828 58.27478516 -10.75 59.125 C-11.54277344 59.68832031 -12.33554688 60.25164062 -13.15234375 60.83203125 C-15.10334076 62.21888455 -17.05247588 63.60827614 -19 65 C-20.07600031 61.7647288 -19.93045298 59.98930729 -18.75 56.8125 C-18.4715625 56.03132813 -18.193125 55.25015625 -17.90625 54.4453125 C-17.30208333 52.81510417 -16.69791667 51.18489583 -16.09375 49.5546875 C-15.8153125 48.77351563 -15.536875 47.99234375 -15.25 47.1875 C-14.98703125 46.47980469 -14.7240625 45.77210938 -14.453125 45.04296875 C-13.90331194 42.56407021 -13.99923573 41.33609749 -15 39 C-16.77380696 37.28420395 -16.77380696 37.28420395 -19.03515625 35.80078125 C-20.24848633 34.94709961 -20.24848633 34.94709961 -21.48632812 34.07617188 C-22.33646484 33.49416016 -23.18660156 32.91214844 -24.0625 32.3125 C-25.74273249 31.14457991 -27.42122417 29.97414992 -29.09765625 28.80078125 C-29.84539307 28.28684814 -30.59312988 27.77291504 -31.36352539 27.2434082 C-32.17358032 26.62792114 -32.17358032 26.62792114 -33 26 C-33 25.67 -33 25.34 -33 25 C-24.42 25 -15.84 25 -7 25 C-6.67 22.69 -6.34 20.38 -6 18 C-5.57806353 16.44576655 -5.11244849 14.90224347 -4.58984375 13.37890625 C-4.32236328 12.58935547 -4.05488281 11.79980469 -3.77929688 10.98632812 C-3.36260742 9.7865332 -3.36260742 9.7865332 -2.9375 8.5625 C-2.65583984 7.73556641 -2.37417969 6.90863281 -2.08398438 6.05664062 C-1.39482208 4.03587662 -0.6981769 2.01766718 0 0 Z " fill="#EBECEE" transform="translate(106,90)"/>
<path d="M0 0 C2.11340464 2.11340464 2.58435125 3.24985646 3.5078125 6.02734375 C3.77207031 6.81947266 4.03632813 7.61160156 4.30859375 8.42773438 C4.57800781 9.25595703 4.84742187 10.08417969 5.125 10.9375 C5.54072266 12.1740332 5.54072266 12.1740332 5.96484375 13.43554688 C8 19.60618073 8 19.60618073 8 23 C16.58 23 25.16 23 34 23 C28.375 28.625 28.375 28.625 25.44921875 30.67578125 C24.83369141 31.11083984 24.21816406 31.54589844 23.58398438 31.99414062 C22.64522461 32.64672852 22.64522461 32.64672852 21.6875 33.3125 C21.04232422 33.76689453 20.39714844 34.22128906 19.73242188 34.68945312 C18.15802858 35.79735952 16.57944354 36.89930525 15 38 C15.63480605 43.922178 17.21092972 49.28827744 19.0625 54.9375 C19.34416016 55.81212891 19.62582031 56.68675781 19.91601562 57.58789062 C20.60565555 59.72694327 21.30040829 61.86418579 22 64 C19.38417082 62.75345227 17.04916219 61.41245051 14.72265625 59.6875 C14.12646484 59.25179687 13.53027344 58.81609375 12.91601562 58.3671875 C11.68286695 57.45759417 10.45108762 56.54614139 9.22070312 55.6328125 C4.48499967 52.0115574 4.48499967 52.0115574 -1 50 C-4.01329996 51.50786789 -4.01329996 51.50786789 -6.8125 53.875 C-7.78832031 54.63554687 -8.76414062 55.39609375 -9.76953125 56.1796875 C-10.50558594 56.78039062 -11.24164063 57.38109375 -12 58 C-12.66 57.67 -13.32 57.34 -14 57 C-11.08352388 37.47434529 -6.36409598 18.68606905 0 0 Z " fill="#EBECEE" transform="translate(15,166)"/>
<path d="M0 0 C1.10859375 0.02255859 2.2171875 0.04511719 3.359375 0.06835938 C6.07434753 0.12687171 8.7864413 0.20879509 11.5 0.3125 C7.72180665 4.32186388 3.70415407 7.48520443 -0.8125 10.625 C-1.45767578 11.07939453 -2.10285156 11.53378906 -2.76757812 12.00195312 C-4.34197142 13.10985952 -5.92055646 14.21180525 -7.5 15.3125 C-6.88858897 20.67464503 -5.63012815 25.50918549 -3.9375 30.625 C-1.5 38.07179752 -1.5 38.07179752 -1.5 40.3125 C-7.19637668 38.50151319 -11.44950087 34.70160635 -16.06054688 31.03710938 C-16.70185547 30.54662109 -17.34316406 30.05613281 -18.00390625 29.55078125 C-18.57955322 29.09743408 -19.1552002 28.64408691 -19.74829102 28.17700195 C-21.47355109 27.13421269 -21.47355109 27.13421269 -23.48193359 27.50463867 C-25.73846507 28.40796104 -27.36833266 29.50633304 -29.28515625 31 C-29.98060547 31.53367187 -30.67605469 32.06734375 -31.39257812 32.6171875 C-32.10865234 33.17664063 -32.82472656 33.73609375 -33.5625 34.3125 C-34.98807736 35.42028975 -36.41635658 36.52461362 -37.84765625 37.625 C-38.79137085 38.36169922 -38.79137085 38.36169922 -39.75415039 39.11328125 C-41.5 40.3125 -41.5 40.3125 -44.5 41.3125 C-43.82116643 38.7000193 -43.11667275 36.10116413 -42.3671875 33.5078125 C-41.46059693 30.37645122 -41.46059693 30.37645122 -41.0078125 27.3671875 C-38.78723505 17.08673635 -30.95931597 12.2733983 -22.640625 6.74926758 C-20.50646054 5.35422652 -20.50646054 5.35422652 -18.609375 3.8347168 C-12.68909379 -0.52763625 -7.15312821 -0.27808214 0 0 Z " fill="#EAECEE" transform="translate(129.5,39.6875)"/>
<path d="M0 0 C2 1 2 1 3.32421875 4.4921875 C3.78679388 5.95056557 4.24086376 7.41166189 4.6875 8.875 C4.92533203 9.60847656 5.16316406 10.34195313 5.40820312 11.09765625 C7.12489686 16.62530941 7.12489686 16.62530941 6 20 C2.37 17.36 -1.26 14.72 -5 12 C-3.54996379 7.64989137 -2.09990776 4.00891482 0 0 Z " fill="#E2E7EC" transform="translate(29,135)"/>
<path d="M0 0 C2.97 0.495 2.97 0.495 6 1 C2.83047153 4.26008643 -0.39937989 7.22237877 -4 10 C-4.66 9.67 -5.32 9.34 -6 9 C-4.02 6.03 -2.04 3.06 0 0 Z " fill="#E5E8ED" transform="translate(42,114)"/>
</svg>
